<?xml version="1.0" encoding="UTF-8"?>
<!-- http://code.google.com/p/vector-playing-cards/ -->
<svg width="167.09pt" height="242.67pt" version="1.1" viewBox="0 0 167.09 242.67" xmlns="http://www.w3.org/2000/svg" xmlns:cc="http://creativecommons.org/ns#" xmlns:dc="http://purl.org/dc/elements/1.1/" xmlns:rdf="http://www.w3.org/1999/02/22-rdf-syntax-ns#">
 <metadata>
  <rdf:RDF>
   <cc:Work rdf:about="">
    <dc:format>image/svg+xml</dc:format>
    <dc:type rdf:resource="http://purl.org/dc/dcmitype/StillImage"/>
   </cc:Work>
  </rdf:RDF>
 </metadata>
 <rect x="-8.8818e-16" y="-8.8818e-16" width="167.09" height="242.67" fill="#fff"/>
 <g transform="matrix(1.8897 0 0 1.7686 107.8 49.874)">
  <path d="m3.676-9c-3.243 0-3.676 3.477-3.676 3.477s-0.433-3.477-3.676-3.477c-2.27 0-4.324 1.559-4.324 4.5 0 3.886 6.5792 7.7938 8 13.5 1.352-5.7014 8-9.614 8-13.5 0-2.941-2.054-4.5-4.324-4.5z" fill="#DF0000"/>
 </g>
 <g transform="matrix(1.8897 0 0 1.7686 59.285 49.874)">
  <path d="m3.676-9c-3.243 0-3.676 3.477-3.676 3.477s-0.433-3.477-3.676-3.477c-2.27 0-4.324 1.559-4.324 4.5 0 3.886 6.5792 7.7938 8 13.5 1.352-5.7014 8-9.614 8-13.5 0-2.941-2.054-4.5-4.324-4.5z" fill="#DF0000"/>
 </g>
 <g transform="matrix(-1.8897 0 0 -1.7686 59.285 192.79)">
  <path d="m3.676-9c-3.243 0-3.676 3.477-3.676 3.477s-0.433-3.477-3.676-3.477c-2.27 0-4.324 1.559-4.324 4.5 0 3.886 6.5792 7.7938 8 13.5 1.352-5.7014 8-9.614 8-13.5 0-2.941-2.054-4.5-4.324-4.5z" fill="#DF0000"/>
 </g>
 <g transform="matrix(-1.8897 0 0 -1.7686 107.8 192.79)">
  <path d="m3.676-9c-3.243 0-3.676 3.477-3.676 3.477s-0.433-3.477-3.676-3.477c-2.27 0-4.324 1.559-4.324 4.5 0 3.886 6.5792 7.7938 8 13.5 1.352-5.7014 8-9.614 8-13.5 0-2.941-2.054-4.5-4.324-4.5z" fill="#DF0000"/>
 </g>
 <g transform="translate(119.76 -24.597)">
  <g transform="matrix(1.9087 0 0 1.7864 -99.429 76.505)">
   <path d="m3.676-9c-3.243 0-3.676 3.477-3.676 3.477s-0.433-3.477-3.676-3.477c-2.27 0-4.324 1.559-4.324 4.5 0 3.886 6.5792 7.7938 8 13.5 1.352-5.7014 8-9.614 8-13.5 0-2.941-2.054-4.5-4.324-4.5z" fill="#DF0000"/>
  </g>
  <g transform="matrix(-1.9087 0 0 -1.7864 27.194 215.81)">
   <path d="m3.676-9c-3.243 0-3.676 3.477-3.676 3.477s-0.433-3.477-3.676-3.477c-2.27 0-4.324 1.559-4.324 4.5 0 3.886 6.5792 7.7938 8 13.5 1.352-5.7014 8-9.614 8-13.5 0-2.941-2.054-4.5-4.324-4.5z" fill="#DF0000"/>
  </g>
 </g>
 <g transform="translate(-36.021 .15892)" aria-label="4">
  <path d="m66.104 25.986h-3.5269v5.7178h-4.1325v-5.7178h-11.845v-3.1706l11.899-17.225h4.0791v16.922h3.5269zm-7.6594-3.4734v-6.4659q0-0.80156 0.01781-1.6209 0.03563-0.83719 0.07125-1.6031 0.03562-0.76594 0.07125-1.4072 0.03562-0.65906 0.05344-1.0866h-0.1425q-0.33844 0.7125-0.74812 1.4606-0.40969 0.73031-0.87281 1.425l-6.4125 9.2981z" fill="#DF0000"/>
 </g>
 <g transform="rotate(180 .15132 .0089075)" aria-label="4">
  <path d="m-136.65-216.98h-3.5269v5.7178h-4.1325v-5.7178h-11.845v-3.1706l11.899-17.225h4.0791v16.922h3.5269zm-7.6594-3.4734v-6.4659q0-0.80157 0.0178-1.6209 0.0356-0.83719 0.0712-1.6031 0.0356-0.76593 0.0712-1.4072 0.0356-0.65907 0.0534-1.0866h-0.1425q-0.33843 0.7125-0.74812 1.4606-0.40969 0.73031-0.87281 1.425l-6.4125 9.2981z" fill="#DF0000"/>
 </g>
</svg>
